<?xml version="1.0" encoding="utf-8"?>
<!-- Generator: Adobe Illustrator 28.3.0, SVG Export Plug-In . SVG Version: 6.00 Build 0)  -->
<svg version="1.1" id="Layer_1" xmlns="http://www.w3.org/2000/svg" xmlns:xlink="http://www.w3.org/1999/xlink" x="0px" y="0px"
	 viewBox="0 0 1817 1826.8" style="enable-background:new 0 0 1817 1826.8;" xml:space="preserve">
<style type="text/css">
	.st0{fill:#FFFFFF;}
	.st1{fill:#E5168D;}
	.st2{fill:#A8CE38;}
	.st3{fill:#DAA756;}
</style>
<path class="st0" d="M907.7,1811.2L907.7,1811.2c-495.8,0-897.8-401.9-897.8-897.8l0,0c0-495.8,401.9-897.8,897.8-897.8l0,0
	c495.8,0,897.8,401.9,897.8,897.8l0,0C1805.5,1409.2,1403.5,1811.2,907.7,1811.2z"/>
<g>
	<path class="st1" d="M1200.7,713.7c-45.1,44.2-99.4,78.7-154.8,106.1c-0.4,0.1-0.6,0.3-0.9,0.4c-131.6,64.5-276.5,86.3-418.9,69
		c-83.9-10.2-177.4-41.4-232.5-113.9c-36.6-48.4-44.3-113.4-28.8-172.8c38.9-147.3,204.6-264.7,331.5-314.3
		c105.2-41.2,220.9-56.5,332.3-32.1c60.4,13.3,119.1,41.9,158.7,89.4c40.6,48.6,46.1,110.7,11.5,164.4
		c-43.1,67.3-107.7,108.3-179,137.2c-62.8,25.4-143.3,36.3-208.9,20.4c-43.9-10.6-86.2-40.6-100.5-86.1
		c-15.8-49.9,8.2-95.9,46.4-130.1c9.8-8.9,20.5-17.1,31.7-24.6c0,0,1.1-0.8,2.9-2c1.3-0.8,2.7-1.6,4-2.5c0.6-0.4,1.3-0.9,2-1.3
		c1.9-1.1,3.8-2.1,5.7-3.3c3.2-1.9,6.8-3.8,11.1-6c2.1-1.1,4.4-2.2,6.7-3.4c3-1.3,6-2.7,9.4-4.2c15.4-7,31.8-12.4,48.1-16.6
		c20.6-5.4,41.8-8.7,63-9.9c12.9-0.7,26-0.5,38.9,0.5c18.9,1.4,40.5,2.8,56.4,14.1c7.5,5.3,13.7,12.4,18,20.6
		c4.3,7.9,6.6,16.8,6.9,25.9c0.9,32.6-24.8,59.8-57.4,60.7c-9.9,0.3-20.2-1.9-29.1-6.7c0.5-0.1,1-0.1,1.4-0.2
		c-17.6-8.1-37.1-11.8-56.5-12.7c-11.4-0.5-22.3,0.8-33.5,1.9c-5.3,0.5-10.7,1.7-16.6,3.3c-27.8,7.9-58.5,27-74.1,48
		c-11.9,16-17.2,39-8.7,57c11,23.1,38.6,29.4,62.9,30.8c49.1,2.9,98.8-3.9,145.7-20c37.9-13.1,75-32.8,101-65
		c55.4-68.5,28.3-167.5-44.4-205.1c-115.8-59.9-269-22-376.1,46.8C614.4,417,561.8,477.8,542.3,551.7c-23,86.6-6.5,198.9,84.1,233.5
		c199.4,76,402.6-36.8,465.9-78.2c104-68,160.8-166.7,176.6-159.1C1307.2,566.4,1241.2,673.9,1200.7,713.7z"/>
	<g>
		<path class="st2" d="M1226.8,803.1c8.7-11-4.8-25.4-16.6-17.5C1062.6,884.7,888,963.4,702.6,930.4c-35.5-6.3-73.5-4.7-105.2,16.5
			c-16.8,11.2-27.7,30.1-25.6,49.7c4.3,40.8,56.1,53.6,97.1,54C885.1,1052.4,1076.6,991.5,1226.8,803.1z"/>
	</g>
	<path class="st3" d="M963.8,1152.1c23.8-8.4,46.9-18.7,69.2-30.6c44.6-23.8,85.7-54,121.7-89.4c25.2-24.7,46.1-56,66.3-84.7
		c19.5-27.8,40.1-61.3,48.3-94.5c0.7-2.8,1.3-5.7,0.4-8.4c-2-6.2-10.9-7.6-16.5-4.4c-0.2,0.1-0.4,0.3-0.6,0.4
		c-5.3,3.4-8.3,9.3-11.3,14.8c-47.3,88.4-133.8,151.2-227.8,186c-94,34.8-195.6,43.8-295.8,44.8c-33.8,0.3-75.3,4.5-88.6,35.5
		c-10.1,23.4,2.8,51.3,21.8,68.3c36.7,32.8,87.7,48.1,127.8,76.4c73.7,52,114.7,135.1,161.6,209.4
		c37.6,59.5,112.4,173.6,197.8,151.4c23.2-6,42.4-22.6,54.1-43.6c19.6-35.1,20.3-74.8,21.9-113.6c5.2-127.6,31.7-319.8,47.6-426.8
		c2.3-15.3-18.8-21.6-25.4-7.6c-26.4,55.9-75.6,332.9-72.3,318.8c8.4-36.5-15.2,72.7-29.7,107.2c-5.7,13.5-13,28.1-26.7,33.5
		c-39.9,15.8-99.3-51.6-128.2-82.7c4.4-1.1,8.4-2.1,11.6-3.2c10.6-3.9,20.8-8.6,30.7-13.9c2.8-1.5,5.6-3.3,8.3-4.9
		c17.2,19.1,34.7,34.8,51.3,43l-39.2-50.8c11.9-8.1,23.1-17.3,33.3-27.4c5-5,9.5-10.5,13.9-16.3c11.2,8.8,23.4,15.5,36.6,18.9
		l-26-33.7c1.5-2.2,3-4.4,4.5-6.5c8.5-12.3,17.5-27.1,20.9-41.7c0.3-1.2,0.5-2.5,0.1-3.7c-0.9-2.7-4.9-3.2-7.4-1.8
		c-0.1,0.1-0.2,0.1-0.3,0.2c-2.3,1.5-3.7,4.1-4.9,6.6c-6.3,12-14.4,23-23.6,33l-42-54.5c2-2.1,4-4.2,6-6.2
		c10.4-10.8,21.7-23.9,27.4-37.8c0.5-1.2,0.9-2.4,0.7-3.6c-0.5-2.8-4.3-4-7-2.9c-0.1,0-0.2,0.1-0.3,0.1c-2.5,1.1-4.3,3.5-5.9,5.7
		c-8.9,11.8-19.6,22-31.5,30.8l-31.5-40.8c0,0,6.6,21.6,19.6,48.9c-19.7,12.2-42,20.8-64.8,26l-42.2-54.8c0,0,12.6,24.4,32.2,56.8
		c-24.7,4.5-49.8,5.5-75,4.4c-7.6-11.7-15-23.6-22-35.7c-5.3-9.1-8.3-19.7-7-30.1C852.1,1167.1,929.2,1164.4,963.8,1152.1z
		 M1018.5,1281.7c5.5-3.9,10.7-8.4,15.7-13.2c10.5,19.3,23.7,39.6,39.5,56.1c-15.4,13-33.1,23.5-51.7,31.6l-40.7-52.9
		C994.4,1297.3,1006.8,1290,1018.5,1281.7z M926.4,1321.3c11.1-2.1,22-5.1,32.6-8.8c3.5-1.2,6.9-2.5,10.3-3.9
		c11.5,17.7,24.3,36.2,37.6,53.6c-19.5,6.9-39.6,11.6-60.1,14.6c-15.1-17.2-29.5-34.9-43.1-53.3
		C912.2,1322.7,920.5,1322.4,926.4,1321.3z"/>
</g>
</svg>
